<?xml version="1.0" encoding="utf-8"?>
<!-- Generator: Adobe Illustrator 28.4.1, SVG Export Plug-In . SVG Version: 6.00 Build 0)  -->
<svg version="1.1" id="Capa_1" xmlns="http://www.w3.org/2000/svg" xmlns:xlink="http://www.w3.org/1999/xlink" x="0px" y="0px"
	 viewBox="0 0 722 360" style="enable-background:new 0 0 722 360;" xml:space="preserve">
<style type="text/css">
	.st0{fill:#4FCDF9;}
</style>
<g>
	<g>
		<path class="st0" d="M171,108c0-6.6-5.4-12-12-12h-5v0c-6.4-0.3-11.5-5.5-11.5-12c0-6.5,5.1-11.7,11.5-12v0h69c6.6,0,12-5.4,12-12
			s-5.4-12-12-12h-7v0c-6.4-0.3-11.5-5.5-11.5-12c0-6.5,5.1-11.7,11.5-12v0h1c6.6,0,12-5.4,12-12s-5.4-12-12-12H12C5.4,0,0,5.4,0,12
			s5.4,12,12,12h48c6.6,0,12,5.4,12,12s-5.4,12-12,12h-6c-6.6,0-12,5.4-12,12s5.4,12,12,12h-4c6.6,0,12,5.4,12,12s-5.4,12-12,12H40
			c-6.6,0-12,5.4-12,12s5.4,12,12,12h119C165.6,120,171,114.6,171,108z"/>
		<path class="st0" d="M90,168H55c-6.6,0-12,5.4-12,12s5.4,12,12,12h35c6.6,0,12-5.4,12-12S96.6,168,90,168z"/>
		<path class="st0" d="M240,264L240,264l6,0c6.6,0,12-5.4,12-12s-5.4-12-12-12h-51v0c-6.4-0.3-11.5-5.5-11.5-12s5.1-11.7,11.5-12v0
			h-2c6.6,0,12-5.4,12-12s-5.4-12-12-12h-49c-6.6,0-12,5.4-12,12s5.4,12,12,12s12,5.4,12,12s-5.4,12-12,12s-12,5.4-12,12
			s5.4,12,12,12h10c6.6,0,12,5.4,12,12s-5.4,12-12,12h2c-6.6,0-12,5.4-12,12s5.4,12,12,12h19c6.6,0,12,5.4,12,12s-5.4,12-12,12h5
			c-6.6,0-12,5.4-12,12s5.4,12,12,12h29c6.6,0,12-5.4,12-12s-5.4-12-12-12h4v0c-6.4-0.3-11.5-5.5-11.5-12c0-6.5,5.1-11.7,11.5-12v0
			h27c6.6,0,12-5.4,12-12s-5.4-12-12-12v0c-6.4-0.3-11.5-5.5-11.5-12C228.5,269.5,233.6,264.3,240,264z"/>
		<circle class="st0" cx="139" cy="156" r="12"/>
	</g>
	<g>
		<path class="st0" d="M376,96h24c6.6,0,12-5.4,12-12s-5.4-12-12-12h-24c-6.6,0-12,5.4-12,12S369.4,96,376,96z"/>
		<path class="st0" d="M435,72c-6.6,0-12,5.4-12,12s5.4,12,12,12h3c6.6,0,12-5.4,12-12s-5.4-12-12-12H435z"/>
		<path class="st0" d="M427,48h24c6.6,0,12-5.4,12-12s-5.4-12-12-12h-24c-6.6,0-12,5.4-12,12S420.4,48,427,48z"/>
		<path class="st0" d="M503,144c6.6,0,12-5.4,12-12s-5.4-12-12-12h-14c-6.6,0-12,5.4-12,12s5.4,12,12,12H503z"/>
		<path class="st0" d="M710,96h-16v0c-6.4-0.3-11.5-5.5-11.5-12c0-6.5,5.1-11.7,11.5-12v0h7c6.6,0,12-5.4,12-12s-5.4-12-12-12H490
			c-6.6,0-12,5.4-12,12s5.4,12,12,12h41c6.6,0,12,5.4,12,12s-5.4,12-12,12h5c-6.6,0-12,5.4-12,12s5.4,12,12,12h174
			c6.6,0,12-5.4,12-12S716.6,96,710,96z"/>
		<path class="st0" d="M522,168h-91l0,0c-6.4-0.3-11.5-5.5-11.5-12s5.1-11.7,11.5-12l0,0c6.6,0,12-5.4,12-12s-5.4-12-12-12h-56
			c-6.6,0-12,5.4-12,12s5.4,12,12,12s12,5.4,12,12s-5.4,12-12,12h-26c-6.6,0-12,5.4-12,12s5.4,12,12,12h34c6.6,0,12,5.4,12,12
			s-5.4,12-12,12s-12,5.4-12,12s5.4,12,12,12h45c6.6,0,12,5.4,12,12s-5.4,12-12,12h3c-6.6,0-12,5.4-12,12s5.4,12,12,12s12,5.4,12,12
			s-5.4,12-12,12h4c-6.6,0-12,5.4-12,12s5.4,12,12,12h36c6.6,0,12-5.4,12-12s-5.4-12-12-12h4v0c-6.4-0.3-11.5-5.5-11.5-12
			c0-6.5,5.1-11.7,11.5-12v0h20c6.6,0,12-5.4,12-12s-5.4-12-12-12h2l0,0c-6.4-0.3-11.5-5.5-11.5-12c0-6.5,5.1-11.7,11.5-12l0,0h15
			c6.6,0,12-5.4,12-12s-5.4-12-12-12h-10v0c-6.4-0.3-11.5-5.5-11.5-12s5.1-11.7,11.5-12v0h20c6.6,0,12-5.4,12-12S528.6,168,522,168z
			"/>
		<circle class="st0" cx="521" cy="300" r="12"/>
	</g>
</g>
</svg>
