<?xml version="1.0" encoding="utf-8"?>
<!-- Generator: Adobe Illustrator 28.4.1, SVG Export Plug-In . SVG Version: 6.00 Build 0)  -->
<svg version="1.1" xmlns="http://www.w3.org/2000/svg" xmlns:xlink="http://www.w3.org/1999/xlink" x="0px" y="0px"
	 viewBox="0 0 507 528" style="enable-background:new 0 0 507 528;" xml:space="preserve">
<style type="text/css">
	.st0{fill:#FFFFFF;}
</style>
<g id="Capa_1">
	<g>
		<g>
			<path class="st0" d="M374,108c0-6.6-5.4-12-12-12h-3v0c-6.4-0.3-11.5-5.5-11.5-12c0-6.5,5.1-11.7,11.5-12l0,0h68
				c6.6,0,12-5.4,12-12s-5.4-12-12-12H267v0c-6.4-0.3-11.5-5.5-11.5-12c0-6.5,5.1-11.7,11.5-12v0h-2c6.6,0,12-5.4,12-12
				s-5.4-12-12-12h-62c-6.6,0-12,5.4-12,12s5.4,12,12,12h16c6.6,0,12,5.4,12,12s-5.4,12-12,12h-49c-6.6,0-12,5.4-12,12s5.4,12,12,12
				h120c6.6,0,12,5.4,12,12s-5.4,12-12,12h-4c-6.6,0-12,5.4-12,12s5.4,12,12,12h76C368.6,120,374,114.6,374,108z"/>
			<path class="st0" d="M238,96h-20c-6.6,0-12,5.4-12,12s5.4,12,12,12h20c6.6,0,12-5.4,12-12S244.6,96,238,96z"/>
			<path class="st0" d="M469,0H313c-6.6,0-12,5.4-12,12s5.4,12,12,12h156c6.6,0,12-5.4,12-12S475.6,0,469,0z"/>
			<path class="st0" d="M408,144h-62c-6.6,0-12,5.4-12,12s5.4,12,12,12h62c6.6,0,12-5.4,12-12S414.6,144,408,144z"/>
			<path class="st0" d="M430,96h-20c-6.6,0-12,5.4-12,12s5.4,12,12,12h20c6.6,0,12-5.4,12-12S436.6,96,430,96z"/>
		</g>
		<g>
			<path class="st0" d="M161,336L161,336l47,0c6.6,0,12-5.4,12-12s-5.4-12-12-12H90c-6.6,0-12,5.4-12,12s5.4,12,12,12h23
				c6.6,0,12,5.4,12,12s-5.4,12-12,12H12c-6.6,0-12,5.4-12,12s5.4,12,12,12h68c6.6,0,12,5.4,12,12s-5.4,12-12,12h-4
				c-6.6,0-12,5.4-12,12s5.4,12,12,12h76c6.6,0,12-5.4,12-12s-5.4-12-12-12h-3l0,0c-6.4-0.3-11.5-5.5-11.5-12
				c0-6.5,5.1-11.7,11.5-12l0,0h26c6.6,0,12-5.4,12-12s-5.4-12-12-12h-14v0c-6.4-0.3-11.5-5.5-11.5-12
				C149.5,341.5,154.6,336.3,161,336z"/>
			<path class="st0" d="M243,360h-20c-6.6,0-12,5.4-12,12s5.4,12,12,12h20c6.6,0,12-5.4,12-12S249.6,360,243,360z"/>
		</g>
		<g>
			<path class="st0" d="M413,432L413,432l47,0c6.6,0,12-5.4,12-12s-5.4-12-12-12H342c-6.6,0-12,5.4-12,12s5.4,12,12,12h23
				c6.6,0,12,5.4,12,12s-5.4,12-12,12H264c-6.6,0-12,5.4-12,12s5.4,12,12,12h68c6.6,0,12,5.4,12,12s-5.4,12-12,12h-4
				c-6.6,0-12,5.4-12,12s5.4,12,12,12h76c6.6,0,12-5.4,12-12s-5.4-12-12-12h-3l0,0c-6.4-0.3-11.5-5.5-11.5-12
				c0-6.5,5.1-11.7,11.5-12l0,0h26c6.6,0,12-5.4,12-12s-5.4-12-12-12h-14v0c-6.4-0.3-11.5-5.5-11.5-12
				C401.5,437.5,406.6,432.3,413,432z"/>
			<path class="st0" d="M495,456h-20c-6.6,0-12,5.4-12,12s5.4,12,12,12h20c6.6,0,12-5.4,12-12S501.6,456,495,456z"/>
		</g>
	</g>
</g>
<g id="Capa_2">
</g>
</svg>
