<?xml version="1.0" encoding="utf-8"?>
<!-- Generator: Adobe Illustrator 28.4.1, SVG Export Plug-In . SVG Version: 6.00 Build 0)  -->
<svg version="1.1" id="Capa_1" xmlns="http://www.w3.org/2000/svg" xmlns:xlink="http://www.w3.org/1999/xlink" x="0px" y="0px"
	 viewBox="0 0 1000 365" style="enable-background:new 0 0 1000 365;" xml:space="preserve">
<style type="text/css">
	.st0{fill:#DC8E61;}
	.st1{fill:#D89D6D;}
</style>
<g>
	<path class="st0" d="M286,96H120c-6.6,0-12,5.4-12,12s5.4,12,12,12h166c6.6,0,12-5.4,12-12S292.6,96,286,96z"/>
	<path class="st0" d="M307,48h-9c-6.6,0-12-5.4-12-12s5.4-12,12-12h84c6.6,0,12-5.4,12-12s-5.4-12-12-12H226c-6.6,0-12,5.4-12,12
		s5.4,12,12,12h24l0,0c6.4,0.3,11.5,5.5,11.5,12s-5.1,11.7-11.5,12l0,0H50c-6.6,0-12,5.4-12,12s5.4,12,12,12h257c6.6,0,12-5.4,12-12
		S313.6,48,307,48z"/>
	<path class="st0" d="M180,12c0-6.6-5.4-12-12-12H12C5.4,0,0,5.4,0,12s5.4,12,12,12h156C174.6,24,180,18.6,180,12z"/>
	<path class="st0" d="M629,48h-49c-6.6,0-12-5.4-12-12s5.4-12,12-12h30c6.6,0,12-5.4,12-12s-5.4-12-12-12H454c-6.6,0-12,5.4-12,12
		s5.4,12,12,12h78l0,0c6.4,0.3,11.5,5.5,11.5,12s-5.1,11.7-11.5,12l0,0H372c-6.6,0-12,5.4-12,12s5.4,12,12,12h257
		c6.6,0,12-5.4,12-12S635.6,48,629,48z"/>
	<path class="st0" d="M445,96h-73c-6.6,0-12,5.4-12,12s5.4,12,12,12h73c6.6,0,12-5.4,12-12S451.6,96,445,96z"/>
	<path class="st0" d="M830,0H674c-6.6,0-12,5.4-12,12s5.4,12,12,12h156c6.6,0,12-5.4,12-12S836.6,0,830,0z"/>
	<path class="st0" d="M732,96h-73c-6.6,0-12,5.4-12,12s5.4,12,12,12h73c6.6,0,12-5.4,12-12S738.6,96,732,96z"/>
</g>
<path class="st1" d="M465,288h-9c-6.6,0-12-5.4-12-12s5.4-12,12-12h84c6.6,0,12-5.4,12-12s-5.4-12-12-12H384c-6.6,0-12,5.4-12,12
	s5.4,12,12,12h24l0,0c6.4,0.3,11.5,5.5,11.5,12s-5.1,11.7-11.5,12l0,0H208c-6.6,0-12,5.4-12,12s5.4,12,12,12h257c6.6,0,12-5.4,12-12
	S471.6,288,465,288z"/>
<path class="st1" d="M444,336H278c-6.6,0-12,5.4-12,12s5.4,12,12,12h166c6.6,0,12-5.4,12-12S450.6,336,444,336z"/>
<path class="st1" d="M338,252c0-6.6-5.4-12-12-12H170c-6.6,0-12,5.4-12,12s5.4,12,12,12h156C332.6,264,338,258.6,338,252z"/>
<path class="st1" d="M988,240H832c-6.6,0-12,5.4-12,12s5.4,12,12,12h156c6.6,0,12-5.4,12-12S994.6,240,988,240z"/>
<path class="st1" d="M890,336h-73c-6.6,0-12,5.4-12,12s5.4,12,12,12h73c6.6,0,12-5.4,12-12S896.6,336,890,336z"/>
<path class="st1" d="M787,288h-49c-6.6,0-12-5.4-12-12s5.4-12,12-12h30c6.6,0,12-5.4,12-12s-5.4-12-12-12H612c-6.6,0-12,5.4-12,12
	s5.4,12,12,12h78l0,0c6.4,0.3,11.5,5.5,11.5,12s-5.1,11.7-11.5,12l0,0H530c-6.6,0-12,5.4-12,12s5.4,12,12,12h257c6.6,0,12-5.4,12-12
	S793.6,288,787,288z"/>
<path class="st1" d="M603,336h-73c-6.6,0-12,5.4-12,12s5.4,12,12,12h73c6.6,0,12-5.4,12-12S609.6,336,603,336z"/>
<path class="st1" d="M567,168h142c6.6,0,12-5.4,12-12s-5.4-12-12-12H567c-6.6,0-12,5.4-12,12S560.4,168,567,168z"/>
<path class="st1" d="M757,168h50c6.6,0,12-5.4,12-12s-5.4-12-12-12h-50c-6.6,0-12,5.4-12,12S750.4,168,757,168z"/>
<path class="st1" d="M512,192c-6.6,0-12,5.4-12,12s5.4,12,12,12h168c6.6,0,12-5.4,12-12s-5.4-12-12-12H512z"/>
<path class="st1" d="M716,204c0,6.6,5.4,12,12,12h28c6.6,0,12-5.4,12-12s-5.4-12-12-12h-28C721.4,192,716,197.4,716,204z"/>
<path class="st1" d="M189,216h28c6.6,0,12-5.4,12-12s-5.4-12-12-12h-28c-6.6,0-12,5.4-12,12S182.4,216,189,216z"/>
<path class="st1" d="M320,168h65c6.6,0,12,5.4,12,12s-5.4,12-12,12h-10c-6.6,0-12,5.4-12,12s5.4,12,12,12h89c6.6,0,12-5.4,12-12
	s-5.4-12-12-12h-10l0,0c-6.4-0.3-11.5-5.5-11.5-12s5.1-11.7,11.5-12l0,0h65c6.6,0,12-5.4,12-12s-5.4-12-12-12H320
	c-6.6,0-12,5.4-12,12S313.4,168,320,168z"/>
<path class="st1" d="M220,168h28c6.6,0,12-5.4,12-12s-5.4-12-12-12h-28c-6.6,0-12,5.4-12,12S213.4,168,220,168z"/>
<path class="st1" d="M253,204c0,6.6,5.4,12,12,12h62c6.6,0,12-5.4,12-12s-5.4-12-12-12h-62C258.4,192,253,197.4,253,204z"/>
</svg>
