<?xml version="1.0" encoding="utf-8"?>
<!-- Generator: Adobe Illustrator 28.4.1, SVG Export Plug-In . SVG Version: 6.00 Build 0)  -->
<svg version="1.1" id="Capa_1" xmlns="http://www.w3.org/2000/svg" xmlns:xlink="http://www.w3.org/1999/xlink" x="0px" y="0px"
	 viewBox="0 0 846.8 504" style="enable-background:new 0 0 846.8 504;" xml:space="preserve">
<style type="text/css">
	.st0{fill:#F0D29F;}
	.st1{fill:#D86534;}
</style>
<g>
	<path class="st0" d="M471.7,336h-73c-6.6,0-12,5.4-12,12s5.4,12,12,12h73c6.6,0,12-5.4,12-12S478.4,336,471.7,336z"/>
	<path class="st0" d="M181.7,252c0-6.6-5.4-12-12-12h-156c-6.6,0-12,5.4-12,12s5.4,12,12,12h156C176.4,264,181.7,258.6,181.7,252z"
		/>
	<path class="st0" d="M184.7,336h-73c-6.6,0-12,5.4-12,12s5.4,12,12,12h73c6.6,0,12-5.4,12-12S191.4,336,184.7,336z"/>
	<path class="st0" d="M471.7,288h-160v0c-6.4-0.3-11.5-5.5-11.5-12c0-6.5,5.1-11.7,11.5-12v0h78c6.6,0,12-5.4,12-12s-5.4-12-12-12
		h-156c-6.6,0-12,5.4-12,12s5.4,12,12,12h30c6.6,0,12,5.4,12,12s-5.4,12-12,12h-49c-6.6,0-12,5.4-12,12s5.4,12,12,12h35h101h121
		c6.6,0,12-5.4,12-12S478.4,288,471.7,288z"/>
	<path class="st0" d="M723.7,336h-166c-6.6,0-12,5.4-12,12s5.4,12,12,12h166c6.6,0,12-5.4,12-12S730.4,336,723.7,336z"/>
	<path class="st0" d="M831.7,240h-156c-6.6,0-12,5.4-12,12s5.4,12,12,12h156c6.6,0,12-5.4,12-12S838.4,240,831.7,240z"/>
	<path class="st0" d="M793.7,288h-200v0c-6.4-0.3-11.5-5.5-11.5-12c0-6.5,5.1-11.7,11.5-12v0h24c6.6,0,12-5.4,12-12s-5.4-12-12-12
		h-156c-6.6,0-12,5.4-12,12s5.4,12,12,12h84c6.6,0,12,5.4,12,12s-5.4,12-12,12h-9c-6.6,0-12,5.4-12,12s5.4,12,12,12h257
		c6.6,0,12-5.4,12-12S800.4,288,793.7,288z"/>
	<path class="st1" d="M237.7,324c0,6.6,5.4,12,12,12h29c6.6,0,12,5.4,12,12s-5.4,12-12,12h-4c-6.6,0-12,5.4-12,12s5.4,12,12,12h76
		c6.6,0,12-5.4,12-12s-5.4-12-12-12h-3l0,0c-6.4-0.3-11.5-5.5-11.5-12c0-6.5,5.1-11.7,11.5-12l0,0h3c6.6,0,12-5.4,12-12
		s-5.4-12-12-12h-101C243.1,312,237.7,317.4,237.7,324z"/>
</g>
</svg>
