<?xml version="1.0" encoding="utf-8"?>
<!-- Generator: Adobe Illustrator 28.4.1, SVG Export Plug-In . SVG Version: 6.00 Build 0)  -->
<svg version="1.1" id="Capa_1" xmlns="http://www.w3.org/2000/svg" xmlns:xlink="http://www.w3.org/1999/xlink" x="0px" y="0px"
	 viewBox="0 0 393 333.9" style="enable-background:new 0 0 393 333.9;" xml:space="preserve">
<style type="text/css">
	.st0{fill:#D04237;}
</style>
<g>
	<g>
		<path class="st0" d="M250,264h-62c-6.6,0-12,5.4-12,12s5.4,12,12,12h62c6.6,0,12-5.4,12-12S256.6,264,250,264z"/>
		<path class="st0" d="M381,72h-40c-6.6,0-12,5.4-12,12s5.4,12,12,12h40c6.6,0,12-5.4,12-12S387.6,72,381,72z"/>
		<path class="st0" d="M132,96h40c6.6,0,12-5.4,12-12s-5.4-12-12-12h-40c-6.6,0-12,5.4-12,12S125.4,96,132,96z"/>
		<path class="st0" d="M133,264h-20c-6.6,0-12,5.4-12,12s5.4,12,12,12h20c6.6,0,12-5.4,12-12S139.6,264,133,264z"/>
		<path class="st0" d="M296,168H12c-6.6,0-12,5.4-12,12s5.4,12,12,12h64c6.6,0,12,5.4,12,12s-5.4,12-12,12H44c-6.6,0-12,5.4-12,12
			s5.4,12,12,12h120c6.6,0,12-5.4,12-12s-5.4-12-12-12h-19l0,0c-6.4-0.3-11.5-5.5-11.5-12s5.1-11.7,11.5-12l0,0h151
			c6.6,0,12-5.4,12-12S302.6,168,296,168z"/>
		<path class="st0" d="M244,240c6.6,0,12-5.4,12-12s-5.4-12-12-12h-20c-6.6,0-12,5.4-12,12s5.4,12,12,12H244z"/>
	</g>
</g>
</svg>
