<?xml version="1.0" encoding="utf-8"?>
<!-- Generator: Adobe Illustrator 28.4.1, SVG Export Plug-In . SVG Version: 6.00 Build 0)  -->
<svg version="1.1" id="Capa_1" xmlns="http://www.w3.org/2000/svg" xmlns:xlink="http://www.w3.org/1999/xlink" x="0px" y="0px"
	 viewBox="0 0 364 360" style="enable-background:new 0 0 364 360;" xml:space="preserve">
<style type="text/css">
	.st0{fill:#D8906E;}
</style>
<g>
	<path class="st0" d="M151,60c0-6.6-5.4-12-12-12h-13v0c-6.4-0.3-11.5-5.5-11.5-12c0-6.5,5.1-11.7,11.5-12l0,0h56
		c6.6,0,12-5.4,12-12s-5.4-12-12-12H26c-6.6,0-12,5.4-12,12s5.4,12,12,12h35c6.6,0,12,5.4,12,12s-5.4,12-12,12H12
		C5.4,48,0,53.4,0,60s5.4,12,12,12h127C145.6,72,151,66.6,151,60z"/>
	<path class="st0" d="M240,72h5c6.6,0,12-5.4,12-12s-5.4-12-12-12h-5c-6.6,0-12,5.4-12,12S233.4,72,240,72z"/>
	<path class="st0" d="M289,288H133c-6.6,0-12,5.4-12,12s5.4,12,12,12h35c6.6,0,12,5.4,12,12s-5.4,12-12,12h-49c-6.6,0-12,5.4-12,12
		s5.4,12,12,12h127c6.6,0,12-5.4,12-12s-5.4-12-12-12h-13v0c-6.4-0.3-11.5-5.5-11.5-12c0-6.5,5.1-11.7,11.5-12l0,0h56
		c6.6,0,12-5.4,12-12S295.6,288,289,288z"/>
	<path class="st0" d="M352,336h-5c-6.6,0-12,5.4-12,12s5.4,12,12,12h5c6.6,0,12-5.4,12-12S358.6,336,352,336z"/>
</g>
</svg>
