<?xml version="1.0" encoding="utf-8"?>
<!-- Generator: Adobe Illustrator 28.4.1, SVG Export Plug-In . SVG Version: 6.00 Build 0)  -->
<svg version="1.1" id="Capa_1" xmlns="http://www.w3.org/2000/svg" xmlns:xlink="http://www.w3.org/1999/xlink" x="0px" y="0px"
	 viewBox="0 0 877 450" style="enable-background:new 0 0 877 450;" xml:space="preserve">
<style type="text/css">
	.st0{opacity:0.4;fill:#356CEE;enable-background:new    ;}
</style>
<g>
	<g>
		<path class="st0" d="M487.4,118h-73c-6.6,0-12,5.4-12,12s5.4,12,12,12h73c6.6,0,12-5.4,12-12S494.1,118,487.4,118z"/>
		<path class="st0" d="M200.4,118h-73c-6.6,0-12,5.4-12,12s5.4,12,12,12h73c6.6,0,12-5.4,12-12S207.1,118,200.4,118z"/>
		<path class="st0" d="M197.4,34c0-6.6-5.4-12-12-12h-156c-6.6,0-12,5.4-12,12s5.4,12,12,12h156C192.1,46,197.4,40.6,197.4,34z"/>
		<path class="st0" d="M847.4,22h-156c-6.6,0-12,5.4-12,12s5.4,12,12,12h156c6.6,0,12-5.4,12-12S854.1,22,847.4,22z"/>
		<path class="st0" d="M809.4,70h-200v0c-6.4-0.3-11.5-5.5-11.5-12s5.1-11.7,11.5-12v0h24c6.6,0,12-5.4,12-12s-5.4-12-12-12h-156
			c-6.6,0-12,5.4-12,12s5.4,12,12,12h84c6.6,0,12,5.4,12,12s-5.4,12-12,12h-9c-6.6,0-12,5.4-12,12s5.4,12,12,12h257
			c6.6,0,12-5.4,12-12S816.1,70,809.4,70z"/>
		<path class="st0" d="M487.4,70h-160v0c-6.4-0.3-11.5-5.5-11.5-12s5.1-11.7,11.5-12v0h78c6.6,0,12-5.4,12-12s-5.4-12-12-12h-156
			c-6.6,0-12,5.4-12,12s5.4,12,12,12h30c6.6,0,12,5.4,12,12s-5.4,12-12,12h-49c-6.6,0-12,5.4-12,12s5.4,12,12,12h257
			c6.6,0,12-5.4,12-12S494.1,70,487.4,70z"/>
		<path class="st0" d="M739.4,118h-166c-6.6,0-12,5.4-12,12s5.4,12,12,12h166c6.6,0,12-5.4,12-12S746.1,118,739.4,118z"/>
	</g>
	<g>
		<path class="st0" d="M197.4,346c0-6.6-5.4-12-12-12h-156c-6.6,0-12,5.4-12,12s5.4,12,12,12h156C192.1,358,197.4,352.6,197.4,346z"
			/>
		<path class="st0" d="M200.4,430h-73c-6.6,0-12,5.4-12,12s5.4,12,12,12h73c6.6,0,12-5.4,12-12S207.1,430,200.4,430z"/>
		<path class="st0" d="M487.4,430h-73c-6.6,0-12,5.4-12,12s5.4,12,12,12h73c6.6,0,12-5.4,12-12S494.1,430,487.4,430z"/>
		<path class="st0" d="M809.4,382h-200v0c-6.4-0.3-11.5-5.5-11.5-12c0-6.5,5.1-11.7,11.5-12v0h24c6.6,0,12-5.4,12-12s-5.4-12-12-12
			h-156c-6.6,0-12,5.4-12,12s5.4,12,12,12h84c6.6,0,12,5.4,12,12s-5.4,12-12,12h-9c-6.6,0-12,5.4-12,12s5.4,12,12,12h257
			c6.6,0,12-5.4,12-12S816.1,382,809.4,382z"/>
		<path class="st0" d="M847.4,334h-156c-6.6,0-12,5.4-12,12s5.4,12,12,12h156c6.6,0,12-5.4,12-12S854.1,334,847.4,334z"/>
		<path class="st0" d="M739.4,430h-166c-6.6,0-12,5.4-12,12s5.4,12,12,12h166c6.6,0,12-5.4,12-12S746.1,430,739.4,430z"/>
		<path class="st0" d="M487.4,382h-160v0c-6.4-0.3-11.5-5.5-11.5-12c0-6.5,5.1-11.7,11.5-12v0h78c6.6,0,12-5.4,12-12s-5.4-12-12-12
			h-156c-6.6,0-12,5.4-12,12s5.4,12,12,12h30c6.6,0,12,5.4,12,12s-5.4,12-12,12h-49c-6.6,0-12,5.4-12,12s5.4,12,12,12h257
			c6.6,0,12-5.4,12-12S494.1,382,487.4,382z"/>
	</g>
</g>
</svg>
