<?xml version="1.0" encoding="utf-8"?>
<!-- Generator: Adobe Illustrator 28.4.1, SVG Export Plug-In . SVG Version: 6.00 Build 0)  -->
<svg version="1.1" id="Capa_1" xmlns="http://www.w3.org/2000/svg" xmlns:xlink="http://www.w3.org/1999/xlink" x="0px" y="0px"
	 viewBox="0 0 880.3 441.4" style="enable-background:new 0 0 880.3 441.4;" xml:space="preserve">
<style type="text/css">
	.st0{fill:#356CEE;}
	.st1{filter:url(#Adobe_OpacityMaskFilter);}
	.st2{fill-rule:evenodd;clip-rule:evenodd;fill:#FFFFFF;}
	.st3{mask:url(#h_00000041290883797377049690000014548869637989932433_);fill:#2255CA;}
</style>
<g>
	<g>
		<path class="st0" d="M201.4,263.4h-73c-6.6,0-12,5.4-12,12s5.4,12,12,12h73c6.6,0,12-5.4,12-12S208.1,263.4,201.4,263.4z"/>
		<path class="st0" d="M198.4,179.4c0-6.6-5.4-12-12-12h-156c-6.6,0-12,5.4-12,12s5.4,12,12,12h156
			C193.1,191.4,198.4,186,198.4,179.4z"/>
		<path class="st0" d="M488.4,263.4h-73c-6.6,0-12,5.4-12,12s5.4,12,12,12h73c6.6,0,12-5.4,12-12S495.1,263.4,488.4,263.4z"/>
		<path class="st0" d="M848.4,167.4h-156c-6.6,0-12,5.4-12,12s5.4,12,12,12h156c6.6,0,12-5.4,12-12S855.1,167.4,848.4,167.4z"/>
		<path class="st0" d="M810.4,215.4h-200v0c-6.4-0.3-11.5-5.5-11.5-12s5.1-11.7,11.5-12v0h24c6.6,0,12-5.4,12-12s-5.4-12-12-12h-156
			c-6.6,0-12,5.4-12,12s5.4,12,12,12h84c6.6,0,12,5.4,12,12s-5.4,12-12,12h-9c-6.6,0-12,5.4-12,12s5.4,12,12,12h257
			c6.6,0,12-5.4,12-12S817.1,215.4,810.4,215.4z"/>
		<path class="st0" d="M488.4,215.4h-160v0c-6.4-0.3-11.5-5.5-11.5-12s5.1-11.7,11.5-12v0h78c6.6,0,12-5.4,12-12s-5.4-12-12-12h-156
			c-6.6,0-12,5.4-12,12s5.4,12,12,12h30c6.6,0,12,5.4,12,12s-5.4,12-12,12h-49c-6.6,0-12,5.4-12,12s5.4,12,12,12h257
			c6.6,0,12-5.4,12-12S495.1,215.4,488.4,215.4z"/>
		<path class="st0" d="M740.4,263.4h-166c-6.6,0-12,5.4-12,12s5.4,12,12,12h166c6.6,0,12-5.4,12-12S747.1,263.4,740.4,263.4z"/>
	</g>
	<defs>
		<filter id="Adobe_OpacityMaskFilter" filterUnits="userSpaceOnUse" x="276.4" y="239.4" width="103" height="72">
			<feColorMatrix  type="matrix" values="1 0 0 0 0  0 1 0 0 0  0 0 1 0 0  0 0 0 1 0"/>
		</filter>
	</defs>
	
		<mask maskUnits="userSpaceOnUse" x="276.4" y="239.4" width="103" height="72" id="h_00000041290883797377049690000014548869637989932433_">
		<g class="st1">
			<circle id="g_00000096758180044723006150000009704705636337644169_" class="st2" cx="396.3" cy="226.4" r="225"/>
		</g>
	</mask>
	<path class="st3" d="M319.4,275.4c0-6.6-5.4-12-12-12h-19c-6.6,0-12-5.4-12-12s5.4-12,12-12h79c6.6,0,12,5.4,12,12
		c0,6.6-5.4,12-12,12h-3v0c-6.4,0.3-11.5,5.5-11.5,12s5.1,11.7,11.5,12v0h3c6.6,0,12,5.4,12,12s-5.4,12-12,12h-61
		c-6.6,0-12-5.4-12-12s5.4-12,12-12h1C314.1,287.4,319.4,282,319.4,275.4z"/>
</g>
</svg>
