<?xml version="1.0" encoding="utf-8"?>
<!-- Generator: Adobe Illustrator 28.4.1, SVG Export Plug-In . SVG Version: 6.00 Build 0)  -->
<svg version="1.1" id="Capa_1" xmlns="http://www.w3.org/2000/svg" xmlns:xlink="http://www.w3.org/1999/xlink" x="0px" y="0px"
	 viewBox="0 0 400 400" style="enable-background:new 0 0 400 400;" xml:space="preserve">
<style type="text/css">
	.st0{fill:#C08240;}
	.st1{fill:#A34D28;}
	.st2{fill:#FAD14C;}
</style>
<g>
	<path class="st0" d="M201,7v9c0.3,0,0.7,0,1,0c102.2,0,185,82.8,185,185s-82.8,185-185,185c-0.3,0-0.7,0-1,0v7
		c106.6,0,193-86.4,193-193S307.6,7,201,7z"/>
	<path class="st1" d="M387,201c0-102.2-82.8-185-185-185c-0.3,0-0.7,0-1,0v101c0.3,0,0.7,0,1,0c45.8,0,83,37.2,83,83
		c0,45.8-37.2,83-83,83c-0.3,0-0.7,0-1,0v103c0.3,0,0.7,0,1,0C304.2,386,387,303.2,387,201z"/>
	<path class="st2" d="M202,283c45.8,0,83-37.2,83-83c0-45.8-37.2-83-83-83c-0.3,0-0.7,0-1,0V283C201.3,283,201.7,283,202,283z"/>
</g>
</svg>
