<?xml version="1.0" encoding="utf-8"?>
<!-- Generator: Adobe Illustrator 28.4.1, SVG Export Plug-In . SVG Version: 6.00 Build 0)  -->
<svg version="1.1" id="Capa_1" xmlns="http://www.w3.org/2000/svg" xmlns:xlink="http://www.w3.org/1999/xlink" x="0px" y="0px"
	 viewBox="0 0 290 290" style="enable-background:new 0 0 290 290;" xml:space="preserve">
<style type="text/css">
	.st0{fill:#7A939C;}
	.st1{fill:#9AB2BB;}
	.st2{fill:#E8903F;}
	.st3{fill:#FFEA87;}
</style>
<g>
	<path class="st0" d="M146,6v9c0.3,0,0.7,0,1,0c72.3,0,131,58.7,131,131s-58.7,131-131,131c-0.3,0-0.7,0-1,0v7
		c76.8,0,139-62.2,139-139S222.8,6,146,6z"/>
	<path class="st1" d="M146,50V15c0,0,0,0-0.1,0L146,50C146,50,146,50,146,50z"/>
	<path class="st1" d="M145.9,240v37c0,0,0,0,0.1,0L145.9,240C146,240,146,240,145.9,240z"/>
	<path class="st1" d="M278,146c0-72.3-58.7-131-131-131c-0.3,0-0.7,0-1,0v35c0.3,0,0.7,0,1,0c52.5,0,95,42.5,95,95s-42.5,95-95,95
		c-0.3,0-0.7,0-1,0v37c0.3,0,0.7,0,1,0C219.3,277,278,218.3,278,146z"/>
	<path class="st2" d="M145.9,187v53c0,0,0,0,0.1,0L145.9,187C146,187,146,187,145.9,187z"/>
	<path class="st2" d="M145.9,104C146,104,146,104,145.9,104l0.1-54c0,0,0,0-0.1,0V104z"/>
	<path class="st2" d="M146.5,104c22.9,0,41.5,18.6,41.5,41.5S169.4,187,146.5,187c-0.2,0-0.3,0-0.5,0v53c0.3,0,0.7,0,1,0
		c52.5,0,95-42.5,95-95s-42.5-95-95-95c-0.3,0-0.7,0-1,0v54C146.2,104,146.3,104,146.5,104z"/>
	<path class="st3" d="M146,187v-83c0,0,0,0-0.1,0L146,187C146,187,146,187,146,187z"/>
	<path class="st3" d="M146.5,187c22.9,0,41.5-18.6,41.5-41.5S169.4,104,146.5,104c-0.2,0-0.3,0-0.5,0v83
		C146.2,187,146.3,187,146.5,187z"/>
</g>
</svg>
