<?xml version="1.0" encoding="utf-8"?>
<!-- Generator: Adobe Illustrator 28.4.1, SVG Export Plug-In . SVG Version: 6.00 Build 0)  -->
<svg version="1.1" id="Capa_1" xmlns="http://www.w3.org/2000/svg" xmlns:xlink="http://www.w3.org/1999/xlink" x="0px" y="0px"
	 viewBox="0 0 458 458" style="enable-background:new 0 0 458 458;" xml:space="preserve">
<style type="text/css">
	.st0{fill:#138B83;}
	.st1{fill:#1BB9AE;}
	.st2{fill:#06504C;}
</style>
<path class="st0" d="M229,8v76c0.3,0,0.7,0,1,0c80.1,0,145,64.9,145,145s-64.9,145-145,145c-0.3,0-0.7,0-1,0v76
	c122.1,0,221-98.9,221-221S351.1,8,229,8z"/>
<path class="st1" d="M375,229c0-80.1-64.9-145-145-145c-0.3,0-0.7,0-1,0v113c17.7,0.3,32,14.7,32,32.5c0,17.8-14.3,32.2-32,32.5v112
	c0.3,0,0.7,0,1,0C310.1,374,375,309.1,375,229z"/>
<path class="st2" d="M261,229.5c0-17.8-14.3-32.2-32-32.5v65C246.7,261.7,261,247.3,261,229.5z"/>
</svg>
