<?xml version="1.0" encoding="utf-8"?>
<!-- Generator: Adobe Illustrator 28.4.1, SVG Export Plug-In . SVG Version: 6.00 Build 0)  -->
<svg version="1.1" id="Capa_1" xmlns="http://www.w3.org/2000/svg" xmlns:xlink="http://www.w3.org/1999/xlink" x="0px" y="0px"
	 viewBox="0 0 582 582" style="enable-background:new 0 0 582 582;" xml:space="preserve">
<style type="text/css">
	.st0{fill:#A15C3E;}
	.st1{fill:#F0D29F;}
	.st2{fill:#E2BE81;}
	.st3{fill:#D27140;}
	.st4{fill:#565658;}
</style>
<path class="st0" d="M291,5v17c0.2,0,0.3,0,0.5,0C440.3,22,561,142.7,561,291.5S440.3,561,291.5,561c-0.2,0-0.3,0-0.5,0v16
	c158,0,286-128,286-286S449,5,291,5z"/>
<path class="st1" d="M561,291.5C561,142.7,440.3,22,291.5,22c-0.2,0-0.3,0-0.5,0v57c0.5,0,1,0,1.5,0C409.9,79,505,174.1,505,291.5
	S409.9,504,292.5,504c-0.5,0-1,0-1.5,0v57c0.2,0,0.3,0,0.5,0C440.3,561,561,440.3,561,291.5z"/>
<path class="st2" d="M292.5,104C396.1,104,480,187.9,480,291.5S396.1,479,292.5,479c-0.5,0-1,0-1.5,0v25c0.5,0,1,0,1.5,0
	C409.9,504,505,408.9,505,291.5S409.9,79,292.5,79c-0.5,0-1,0-1.5,0v25C291.5,104,292,104,292.5,104z"/>
<path class="st3" d="M480,291.5C480,187.9,396.1,104,292.5,104c-0.5,0-1,0-1.5,0v145c23.2,0,42,18.8,42,42c0,23.2-18.8,42-42,42v146
	c0.5,0,1,0,1.5,0C396.1,479,480,395.1,480,291.5z"/>
<path class="st4" d="M333,291c0-23.2-18.8-42-42-42v84C314.2,333,333,314.2,333,291z"/>
</svg>
