<?xml version="1.0" encoding="utf-8"?>
<!-- Generator: Adobe Illustrator 28.4.1, SVG Export Plug-In . SVG Version: 6.00 Build 0)  -->
<svg version="1.1" id="Capa_1" xmlns="http://www.w3.org/2000/svg" xmlns:xlink="http://www.w3.org/1999/xlink" x="0px" y="0px"
	 viewBox="0 0 668 668" style="enable-background:new 0 0 668 668;" xml:space="preserve">
<style type="text/css">
	.st0{fill-rule:evenodd;clip-rule:evenodd;fill:#B87D43;}
	.st1{fill:#FCCB6B;}
	.st2{fill:#FFFFFF;filter:url(#Adobe_OpacityMaskFilter);}
	.st3{mask:url(#a_00000152256163938128801550000008202227779729118901_);}
	.st4{fill-rule:evenodd;clip-rule:evenodd;fill:#ECB55A;}
	.st5{fill:#FFFFFF;filter:url(#Adobe_OpacityMaskFilter_00000097466945892148833490000016734825589330540172_);}
	.st6{mask:url(#b_00000053514921288744628290000017426459354543114172_);}
	.st7{opacity:7.800000e-02;enable-background:new    ;}
</style>
<path class="st0" d="M53.3,53.3c0.1-0.1,0.2-0.2,0.3-0.4c28.7-28.7,177.7,73.7,332.7,228.7s257.5,304,228.7,332.7
	c-0.1,0.1-0.2,0.2-0.4,0.3l-45.5-45.5c0.1-0.1,0.2-0.2,0.4-0.3c24-24-61.8-148.8-191.7-278.7C248,160.2,123.2,74.4,99.2,98.4
	c-0.1,0.1-0.2,0.2-0.3,0.4L53.3,53.3z M109.8,109.8c22.9-22.9,141.6,58.8,265.2,182.4s205.2,242.4,182.4,265.2l-17.1-17.1
	c0.1-0.1,0.2-0.2,0.4-0.3c21.1-21.1-54.1-130.6-168-244.6S149.2,106.2,128,127.3c-0.1,0.1-0.2,0.2-0.3,0.4L109.8,109.8L109.8,109.8z
	"/>
<circle class="st1" cx="334" cy="318" r="208"/>
<defs>
	<filter id="Adobe_OpacityMaskFilter" filterUnits="userSpaceOnUse" x="44.7" y="46.9" width="609.5" height="602.4">
		<feColorMatrix  type="matrix" values="1 0 0 0 0  0 1 0 0 0  0 0 1 0 0  0 0 0 1 0"/>
	</filter>
</defs>
<mask maskUnits="userSpaceOnUse" x="44.7" y="46.9" width="609.5" height="602.4" id="a_00000152256163938128801550000008202227779729118901_">
	<circle class="st2" cx="334" cy="318" r="208"/>
</mask>
<g class="st3">
	<path class="st4" d="M540.4,518.5c-4.7-4.7-12.3-4.7-17,0c-4.7,4.7-4.7,12.3,0,17l110.3,110.3c4.7,4.7,12.3,4.7,17,0s4.7-12.3,0-17
		L540.4,518.5z M384.8,362.9c-4.7-4.7-12.3-4.7-17,0s-4.7,12.3,0,17L423,435l0,0c4.3,4.7,4.2,12-0.3,16.6s-11.9,4.7-16.6,0.3l0,0
		L292.9,338.9c-4.7-4.7-12.3-4.7-17,0c-4.7,4.7-4.7,12.3,0,17l181.7,181.7c4.7,4.7,12.3,4.7,17,0c4.7-4.7,4.7-12.3,0-17L440,485.9
		c-4.7-4.7-4.7-12.3,0-17s12.3-4.7,17,0l21.2,21.2c4.7,4.7,12.3,4.7,17,0c4.7-4.7,4.7-12.3,0-17L384.8,362.9z M461.9,575.7
		c-4.7-4.7-12.3-4.7-17,0c-4.7,4.7-4.7,12.3,0,17l51.6,51.6c4.7,4.7,12.3,4.7,17,0c4.7-4.7,4.7-12.3,0-17L461.9,575.7L461.9,575.7z
		 M258.9,372.8c-4.7-4.7-12.3-4.7-17,0c-4.7,4.7-4.7,12.3,0,17l51.6,51.6c4.7,4.7,12.3,4.7,17,0c4.7-4.7,4.7-12.3,0-17L258.9,372.8
		L258.9,372.8z M63.8,194.6c4.7-4.7,12.3-4.7,17,0L198.1,312c4.7,4.7,4.7,12.3,0,17c-4.7,4.7-12.3,4.7-17,0L63.8,211.6
		C59.1,206.9,59.1,199.3,63.8,194.6z M257.5,269.6c-4.7-4.7-12.3-4.7-17,0s-4.7,12.3,0,17l6.4,6.4c4.7,4.7,4.7,12.3,0,17
		s-12.3,4.7-17,0L48.2,128.1c-4.7-4.7-4.7-12.3,0-17c4.7-4.7,12.3-4.7,17,0l141.4,141.4l0,0c4.7,4.3,12,4.2,16.6-0.3
		c4.6-4.6,4.7-11.9,0.3-16.6l0,0l-17-17c-4.7-4.7-4.7-12.3,0-17c4.7-4.7,12.3-4.7,17,0L333.9,312c4.7,4.7,4.7,12.3,0,17
		s-12.3,4.7-17,0L257.5,269.6L257.5,269.6z M55.3,50.4c4.7-4.7,12.3-4.7,17,0l110.3,110.3c4.7,4.7,4.7,12.3,0,17s-12.3,4.7-17,0
		L55.3,67.3C50.6,62.7,50.6,55.1,55.3,50.4L55.3,50.4z"/>
</g>
<g>
	<defs>
		
			<filter id="Adobe_OpacityMaskFilter_00000181075045073532034150000008741657478413976718_" filterUnits="userSpaceOnUse" x="334" y="110" width="209.1" height="416">
			<feColorMatrix  type="matrix" values="1 0 0 0 0  0 1 0 0 0  0 0 1 0 0  0 0 0 1 0"/>
		</filter>
	</defs>
	
		<mask maskUnits="userSpaceOnUse" x="334" y="110" width="209.1" height="416" id="b_00000053514921288744628290000017426459354543114172_">
		
			<circle style="fill:#FFFFFF;filter:url(#Adobe_OpacityMaskFilter_00000181075045073532034150000008741657478413976718_);" cx="334" cy="318" r="208"/>
	</mask>
	<g class="st6">
		<path class="st7" d="M334,110h209.1v416H334V110z"/>
	</g>
</g>
<path class="st0" d="M53.3,53.3c-0.1,0.1-0.2,0.2-0.4,0.3c-28.7,28.7,73.7,177.7,228.7,332.7s304,257.5,332.7,228.7
	c0.1-0.1,0.2-0.2,0.3-0.4l-45.5-45.5c-0.1,0.1-0.2,0.2-0.3,0.4c-24,24-148.8-61.8-278.7-191.7S74.4,123.2,98.4,99.2
	c0.1-0.1,0.2-0.2,0.4-0.3L53.3,53.3z M109.8,109.8C87,132.7,168.6,251.5,292.2,375.1s242.4,205.2,265.2,182.4l-17.1-17.1
	c-0.1,0.1-0.2,0.2-0.3,0.4c-21.1,21.1-130.6-54.1-244.6-168S106.2,149.2,127.3,128c0.1-0.1,0.2-0.2,0.4-0.3
	C127.7,127.7,109.8,109.8,109.8,109.8z"/>
</svg>
