<?xml version="1.0" encoding="utf-8"?>
<!-- Generator: Adobe Illustrator 28.4.1, SVG Export Plug-In . SVG Version: 6.00 Build 0)  -->
<svg version="1.1" id="Capa_1" xmlns="http://www.w3.org/2000/svg" xmlns:xlink="http://www.w3.org/1999/xlink" x="0px" y="0px"
	 viewBox="0 0 668 668" style="enable-background:new 0 0 668 668;" xml:space="preserve">
<style type="text/css">
	.st0{fill:#B87D43;}
</style>
<g>
	<path class="st0" d="M109.8,109.8l17.8,17.8c0.1-0.1,0.2-0.2,0.3-0.4c9.8-9.8,38.5,1.1,77.8,26.8c1.7-1.3,3.3-2.6,5-3.8
		C159.7,114.4,121.8,97.9,109.8,109.8z"/>
	<path class="st0" d="M53.6,52.9c-0.1,0.1-0.2,0.2-0.3,0.4l45.5,45.5c0.1-0.1,0.2-0.2,0.3-0.4c13.2-13.2,57,6.8,115.4,49.2
		c4.2-3,8.6-5.8,13.1-8.5C140.2,70.2,72.1,34.5,53.6,52.9z"/>
	<path class="st0" d="M540.7,540c-0.1,0.1-0.2,0.2-0.4,0.3l17.1,17.1c13.3-13.3-8.7-59-53.7-119.2c-1.1,1.5-2.1,3-3.2,4.4
		C535.6,491.9,552,528.6,540.7,540z"/>
	<path class="st0" d="M514.1,422.1c-2.5,4.3-5.1,8.5-7.9,12.5c51.9,67.7,77.9,119.6,63.3,134.2c-0.1,0.1-0.2,0.2-0.4,0.3l45.5,45.5
		c0.1-0.1,0.2-0.2,0.4-0.3C634.8,594.7,592.7,518.2,514.1,422.1z"/>
	<path class="st0" d="M98.4,99.2c0.1-0.1,0.2-0.2,0.4-0.3L53.3,53.3c-0.1,0.1-0.2,0.2-0.4,0.3c-18.9,18.9,18.9,89.6,90.9,179.9
		c2.2-4.9,4.6-9.7,7.1-14.5C106.3,158.5,84.9,112.7,98.4,99.2z"/>
	<path class="st0" d="M557.4,557.4l-17.1-17.1c-0.1,0.1-0.2,0.2-0.3,0.4c-11.6,11.6-50-5.9-101.1-43c-1.6,0.9-3.3,1.9-4.9,2.8
		C496.3,547.7,543.8,571.1,557.4,557.4z"/>
	<path class="st0" d="M614.4,615.1c0.1-0.1,0.2-0.2,0.3-0.4l-45.5-45.5c-0.1,0.1-0.2,0.2-0.3,0.4c-15,15-69-12.6-139-66.9
		c-4.5,2.4-9.1,4.5-13.8,6.6C515,590.9,594.2,635.2,614.4,615.1z"/>
	<path class="st0" d="M127.3,128c0.1-0.1,0.2-0.2,0.4-0.3l-17.9-17.8c-12.2,12.2,5.4,51.9,43.4,105.1c1.1-1.9,2.2-3.7,3.3-5.5
		C129.1,168.3,117.3,138.1,127.3,128z"/>
	<path class="st0" d="M156.6,209.4c-1.1,1.8-2.2,3.7-3.3,5.5c33,46.2,81.4,102.7,138.9,160.1c50.1,50.1,99.3,93.2,141.7,125.4
		c1.6-0.9,3.3-1.8,4.9-2.8c-41.8-30.3-92.2-73.8-143.5-125C235.7,313,186.7,254.6,156.6,209.4z"/>
	<path class="st0" d="M151,219.1c-2.6,4.7-4.9,9.5-7.1,14.5c37.6,47.1,84.6,99.6,137.8,152.8c46.4,46.4,92.2,88,134.4,122.9
		c4.7-2,9.3-4.2,13.8-6.6c-42.4-32.9-90.7-75.7-139.8-124.7C233.6,321.4,185.4,265.8,151,219.1z"/>
</g>
</svg>
