<?xml version="1.0" encoding="utf-8"?>
<!-- Generator: Adobe Illustrator 28.4.1, SVG Export Plug-In . SVG Version: 6.00 Build 0)  -->
<svg version="1.1" id="Capa_1" xmlns="http://www.w3.org/2000/svg" xmlns:xlink="http://www.w3.org/1999/xlink" x="0px" y="0px"
	 viewBox="0 0 290 290" style="enable-background:new 0 0 290 290;" xml:space="preserve">
<style type="text/css">
	.st0{fill:#DEF4FC;}
	.st1{filter:url(#Adobe_OpacityMaskFilter);}
	.st2{fill-rule:evenodd;clip-rule:evenodd;fill:#FFFFFF;}
	.st3{opacity:7.800000e-02;mask:url(#d_00000082343330298258100800000018346020596434020526_);enable-background:new    ;}
	.st4{filter:url(#Adobe_OpacityMaskFilter_00000117639751881835519780000010271765592580968591_);}
	.st5{mask:url(#b_00000172426555126138767490000002527162343676714375_);}
	.st6{fill:#B1D5E2;}
	.st7{filter:url(#Adobe_OpacityMaskFilter_00000091012401115389254570000009365978559966790287_);}
	.st8{mask:url(#b_00000154389667007592788160000006809146605940712611_);}
</style>
<circle class="st0" cx="145" cy="145" r="145"/>
<defs>
	<filter id="Adobe_OpacityMaskFilter" filterUnits="userSpaceOnUse" x="384.3" y="0" width="145" height="290">
		<feColorMatrix  type="matrix" values="1 0 0 0 0  0 1 0 0 0  0 0 1 0 0  0 0 0 1 0"/>
	</filter>
</defs>
<mask maskUnits="userSpaceOnUse" x="384.3" y="0" width="145" height="290" id="d_00000082343330298258100800000018346020596434020526_">
	<g class="st1">
		<circle id="c_00000094608050320647952600000008006521581868755887_" class="st2" cx="383.3" cy="145" r="145"/>
	</g>
</mask>
<path class="st3" d="M384.3,0h145v290h-145V0z"/>
<g>
	<defs>
		
			<filter id="Adobe_OpacityMaskFilter_00000172418210023441737970000009828725991880311229_" filterUnits="userSpaceOnUse" x="-532.8" y="36.9" width="139" height="216">
			<feColorMatrix  type="matrix" values="1 0 0 0 0  0 1 0 0 0  0 0 1 0 0  0 0 0 1 0"/>
		</filter>
	</defs>
	
		<mask maskUnits="userSpaceOnUse" x="-532.8" y="36.9" width="139" height="216" id="b_00000172426555126138767490000002527162343676714375_">
		<g style="filter:url(#Adobe_OpacityMaskFilter_00000172418210023441737970000009828725991880311229_);">
			<circle id="a_00000085221462336464755460000016281501105796351158_" class="st2" cx="-505.8" cy="120.9" r="145"/>
		</g>
	</mask>
	<g class="st5">
		<path class="st6" d="M-496.8,228.9c6.6,0,12,5.4,12,12s-5.4,12-12,12h-20c-6.6,0-12-5.4-12-12s5.4-12,12-12H-496.8z"/>
		<path class="st6" d="M-410.8,180.9c6.6,0,12,5.4,12,12s-5.4,12-12,12h-62c-6.6,0-12-5.4-12-12s5.4-12,12-12H-410.8z"/>
		<circle class="st6" cx="-520.8" cy="192.9" r="12"/>
		<circle class="st6" cx="-405.8" cy="144.9" r="12"/>
		<path class="st6" d="M-429.8,36.9c6.6,0,12,5.4,12,12s-5.4,12-12,12h-20c-6.6,0-12-5.4-12-12s5.4-12,12-12H-429.8z"/>
	</g>
	<path class="st6" d="M-405.8-11.1c6.6,0,12,5.4,12,12s-5.4,12-12,12h-58c-6.6,0-12-5.4-12-12s5.4-12,12-12H-405.8z"/>
	<path class="st6" d="M-565.8,120.9c0-6.6-5.4-12-12-12h-71c-6.6,0-12-5.4-12-12s5.4-12,12-12h49c6.6,0,12-5.4,12-12s-5.4-12-12-12
		h-5c-6.6,0-12-5.4-12-12s5.4-12,12-12h73c6.6,0,12,5.4,12,12s-5.4,12-12,12h-20v0c-6.4,0.3-11.5,5.5-11.5,12s5.1,11.7,11.5,12v0h45
		c6.6,0,12,5.4,12,12s-5.4,12-12,12h-2l0,0c-6.4,0.3-11.5,5.5-11.5,12s5.1,11.7,11.5,12l0,0h52c6.6,0,12,5.4,12,12s-5.4,12-12,12
		h-124c-6.6,0-12-5.4-12-12s5.4-12,12-12h3C-571.2,132.9-565.8,127.5-565.8,120.9z"/>
	<path class="st6" d="M-628.8,132.9c6.6,0,12,5.4,12,12s-5.4,12-12,12h-20c-6.6,0-12-5.4-12-12s5.4-12,12-12H-628.8z"/>
	<defs>
		
			<filter id="Adobe_OpacityMaskFilter_00000149383826504486530160000005954223830768008126_" filterUnits="userSpaceOnUse" x="-256.8" y="-11.1" width="139" height="216">
			<feColorMatrix  type="matrix" values="1 0 0 0 0  0 1 0 0 0  0 0 1 0 0  0 0 0 1 0"/>
		</filter>
	</defs>
	
		<mask maskUnits="userSpaceOnUse" x="-256.8" y="-11.1" width="139" height="216" id="b_00000154389667007592788160000006809146605940712611_">
		<g style="filter:url(#Adobe_OpacityMaskFilter_00000149383826504486530160000005954223830768008126_);">
			<circle id="a_00000112607640951842312930000007556102973037714879_" class="st2" cx="-229.8" cy="72.9" r="145"/>
		</g>
	</mask>
	<g class="st8">
		<path class="st6" d="M-220.8,180.9c6.6,0,12,5.4,12,12s-5.4,12-12,12h-20c-6.6,0-12-5.4-12-12s5.4-12,12-12H-220.8z"/>
		<path class="st6" d="M-134.8,132.9c6.6,0,12,5.4,12,12s-5.4,12-12,12h-62c-6.6,0-12-5.4-12-12s5.4-12,12-12H-134.8z"/>
		<circle class="st6" cx="-244.8" cy="144.9" r="12"/>
		<circle class="st6" cx="-129.8" cy="96.9" r="12"/>
		<path class="st6" d="M-153.8-11.1c6.6,0,12,5.4,12,12s-5.4,12-12,12h-20c-6.6,0-12-5.4-12-12s5.4-12,12-12H-153.8z"/>
	</g>
	<path class="st6" d="M-129.8,228.9c6.6,0,12,5.4,12,12s-5.4,12-12,12h-58c-6.6,0-12-5.4-12-12s5.4-12,12-12H-129.8z"/>
	<path class="st6" d="M-289.8,72.9c0-6.6-5.4-12-12-12h-71c-6.6,0-12-5.4-12-12s5.4-12,12-12h49c6.6,0,12-5.4,12-12s-5.4-12-12-12
		h-5c-6.6,0-12-5.4-12-12s5.4-12,12-12h73c6.6,0,12,5.4,12,12s-5.4,12-12,12h-20v0c-6.4,0.3-11.5,5.5-11.5,12s5.1,11.7,11.5,12v0h45
		c6.6,0,12,5.4,12,12s-5.4,12-12,12h-2l0,0c-6.4,0.3-11.5,5.5-11.5,12s5.1,11.7,11.5,12l0,0h52c6.6,0,12,5.4,12,12s-5.4,12-12,12
		h-124c-6.6,0-12-5.4-12-12s5.4-12,12-12h3C-295.2,84.9-289.8,79.5-289.8,72.9z"/>
	<path class="st6" d="M-337.8,132.9c6.6,0,12,5.4,12,12s-5.4,12-12,12h-20c-6.6,0-12-5.4-12-12s5.4-12,12-12H-337.8z"/>
	<circle class="st6" cx="-295.3" cy="240.9" r="12"/>
</g>
</svg>
