<?xml version="1.0" encoding="utf-8"?>
<!-- Generator: Adobe Illustrator 28.4.1, SVG Export Plug-In . SVG Version: 6.00 Build 0)  -->
<svg version="1.1" id="Capa_1" xmlns="http://www.w3.org/2000/svg" xmlns:xlink="http://www.w3.org/1999/xlink" x="0px" y="0px"
	 viewBox="0 0 336 336" style="enable-background:new 0 0 336 336;" xml:space="preserve">
<style type="text/css">
	.st0{fill:#97271E;}
	.st1{fill:#DC5D1C;}
	.st2{fill:#F8A053;}
	.st3{fill:#FFCA79;}
	.st4{fill:#FFF5C6;}
</style>
<g>
	<path class="st0" d="M169,7v7c0.3,0,0.7,0,1,0c85.1,0,154,68.9,154,154s-68.9,154-154,154c-0.3,0-0.7,0-1,0v7
		c88.9,0,161-72.1,161-161S257.9,7,169,7z"/>
	<path class="st1" d="M324,168c0-85.1-68.9-154-154-154c-0.3,0-0.7,0-1,0v75c0.3,0,0.7,0,1,0c43.6,0,79,35.4,79,79s-35.4,79-79,79
		c-0.3,0-0.7,0-1,0v75c0.3,0,0.7,0,1,0C255.1,322,324,253.1,324,168z"/>
	<path class="st2" d="M170,114c29.8,0,54,24.2,54,54s-24.2,54-54,54c-0.3,0-0.7,0-1,0v25c0.3,0,0.7,0,1,0c43.6,0,79-35.4,79-79
		s-35.4-79-79-79c-0.3,0-0.7,0-1,0v25C169.3,114,169.7,114,170,114z"/>
	<path class="st3" d="M224,168c0-29.8-24.2-54-54-54c-0.3,0-0.7,0-1,0v15c0.3,0,0.7,0,1,0c22.1,0,40,17.9,40,40s-17.9,40-40,40
		c-0.3,0-0.7,0-1,0v13c0.3,0,0.7,0,1,0C199.8,222,224,197.8,224,168z"/>
	<path class="st4" d="M170,209c22.1,0,40-17.9,40-40s-17.9-40-40-40c-0.3,0-0.7,0-1,0V209C169.3,209,169.7,209,170,209z"/>
</g>
</svg>
