<?xml version="1.0" encoding="utf-8"?>
<!-- Generator: Adobe Illustrator 28.4.1, SVG Export Plug-In . SVG Version: 6.00 Build 0)  -->
<svg version="1.1" id="Capa_1" xmlns="http://www.w3.org/2000/svg" xmlns:xlink="http://www.w3.org/1999/xlink" x="0px" y="0px"
	 viewBox="0 0 450 450" style="enable-background:new 0 0 450 450;" xml:space="preserve">
<style type="text/css">
	.st0{fill:#94D5FF;}
	.st1{fill:#2959C9;}
	.st2{fill:#6593FF;}
	.st3{fill:#4A7AE9;}
	.st4{fill:#042570;}
</style>
<path class="st0" d="M225,7v7c116.5,0,211,94.5,211,211s-94.5,211-211,211v7c120.4,0,218-97.6,218-218S345.4,7,225,7z"/>
<path class="st1" d="M436,225c0-116.5-94.5-211-211-211v64c81.2,0,147,65.8,147,147s-65.8,147-147,147v64
	C341.5,436,436,341.5,436,225z"/>
<path class="st2" d="M307,225c0,45.3-36.7,82-82,82v65c81.2,0,147-65.8,147-147S306.2,78,225,78v65C270.3,143,307,179.7,307,225z"/>
<path class="st3" d="M307,225c0-45.3-36.7-82-82-82v50c17.7,0,32,14.3,32,32s-14.3,32-32,32v50C270.3,307,307,270.3,307,225z"/>
<path class="st4" d="M257,225c0-17.7-14.3-32-32-32v64C242.7,257,257,242.7,257,225z"/>
</svg>
