<?xml version="1.0" encoding="utf-8"?>
<!-- Generator: Adobe Illustrator 28.4.1, SVG Export Plug-In . SVG Version: 6.00 Build 0)  -->
<svg version="1.1" id="Capa_1" xmlns="http://www.w3.org/2000/svg" xmlns:xlink="http://www.w3.org/1999/xlink" x="0px" y="0px"
	 viewBox="0 0 450 450" style="enable-background:new 0 0 450 450;" xml:space="preserve">
<style type="text/css">
	.st0{fill:#2A2D80;}
	.st1{fill:#952525;}
	.st2{fill:#E0592F;}
	.st3{fill:#F89035;}
	.st4{fill:#FFF1AA;}
</style>
<g>
	<path class="st0" d="M225,7L225,7v11l0,0V7z"/>
	<path class="st0" d="M443,225C443,104.6,345.4,7,225,7v11c0.5,0,1,0,1.5,0C341.7,18,435,111.3,435,226.5S341.7,435,226.5,435
		c-0.5,0-1,0-1.5,0v8C345.4,443,443,345.4,443,225z"/>
	<path class="st0" d="M225,435v8l0,0V435L225,435z"/>
	<path class="st1" d="M227,47c98.3,0,178,79.7,178,178s-79.7,178-178,178c-0.7,0-1.3,0-2,0v32c0.5,0,1,0,1.5,0
		C341.7,435,435,341.7,435,226.5S341.7,18,226.5,18c-0.5,0-1,0-1.5,0v29C225.7,47,226.3,47,227,47z"/>
	<path class="st1" d="M225,403L225,403v32l0,0V403z"/>
	<path class="st1" d="M225,47V18l0,0V47L225,47z"/>
	<path class="st2" d="M225,332v71l0,0V332L225,332z"/>
	<path class="st2" d="M405,225c0-98.3-79.7-178-178-178c-0.7,0-1.3,0-2,0v71c0.7,0,1.3,0,2,0c59.1,0,107,47.9,107,107
		s-47.9,107-107,107c-0.7,0-1.3,0-2,0v71c0.7,0,1.3,0,2,0C325.3,403,405,323.3,405,225z"/>
	<path class="st2" d="M225,118V47l0,0V118L225,118z"/>
	<path class="st3" d="M225,175L225,175v-57l0,0V175z"/>
	<path class="st3" d="M225,277v55l0,0V277L225,277z"/>
	<path class="st3" d="M226,175c28.2,0,51,22.8,51,51s-22.8,51-51,51c-0.3,0-0.6,0-1,0v55c0.7,0,1.3,0,2,0c59.1,0,107-47.9,107-107
		s-47.9-107-107-107c-0.7,0-1.3,0-2,0v57C225.4,175,225.7,175,226,175z"/>
	<path class="st4" d="M225,277V175l0,0V277L225,277z"/>
	<path class="st4" d="M226,277c28.2,0,51-22.8,51-51s-22.8-51-51-51c-0.3,0-0.6,0-1,0v102C225.4,277,225.7,277,226,277z"/>
</g>
</svg>
