<?xml version="1.0" encoding="utf-8"?>
<!-- Generator: Adobe Illustrator 28.4.1, SVG Export Plug-In . SVG Version: 6.00 Build 0)  -->
<svg version="1.1" id="Capa_1" xmlns="http://www.w3.org/2000/svg" xmlns:xlink="http://www.w3.org/1999/xlink" x="0px" y="0px"
	 viewBox="0 0 668 668" style="enable-background:new 0 0 668 668;" xml:space="preserve">
<style type="text/css">
	.st0{fill:#9C4925;}
	.st1{fill:#E09B7F;}
	.st2{fill:#FFEECC;}
</style>
<path class="st0" d="M333.5,11.9v140.6c0.5,0,1.1,0,1.6,0c100.5,0,181.9,81.4,181.9,181.9s-81.4,181.9-181.9,181.9
	c-0.5,0-1.1,0-1.6,0v140.6c178.2,0,322.5-144.3,322.5-322.5S511.7,11.9,333.5,11.9z"/>
<path class="st1" d="M517.1,334.4c0-100.5-81.4-181.9-181.9-181.9c-0.5,0-1.1,0-1.6,0v127.7c0.3,0,0.5,0,0.9,0
	c30.6,0,55.1,24.6,55.1,55.1c0,30.5-24.6,55.1-55.1,55.1c-0.3,0-0.5,0-0.9,0v126.1c0.5,0,1.1,0,1.6,0
	C435.7,516.3,517.1,434.9,517.1,334.4z"/>
<path class="st2" d="M334.4,390.3c30.6,0,55.1-24.6,55.1-55.1c0-30.5-24.6-55.1-55.1-55.1c-0.3,0-0.5,0-0.9,0v110.1
	C333.8,390.3,334.1,390.3,334.4,390.3z"/>
</svg>
