<?xml version="1.0" encoding="utf-8"?>
<!-- Generator: Adobe Illustrator 28.4.1, SVG Export Plug-In . SVG Version: 6.00 Build 0)  -->
<svg version="1.1" id="Capa_1" xmlns="http://www.w3.org/2000/svg" xmlns:xlink="http://www.w3.org/1999/xlink" x="0px" y="0px"
	 viewBox="0 0 872 120" style="enable-background:new 0 0 872 120;" xml:space="preserve">
<style type="text/css">
	.st0{fill:#ECB55A;}
</style>
<g>
	<path class="st0" d="M196,12c0-6.6-5.4-12-12-12H28c-6.6,0-12,5.4-12,12l0,0c0,6.6,5.4,12,12,12h156C190.6,24,196,18.6,196,12z"/>
	<path class="st0" d="M302,96H136c-6.6,0-12,5.4-12,12s5.4,12,12,12h166c6.6,0,12-5.4,12-12S308.6,96,302,96z"/>
	<path class="st0" d="M645,48h-49c-6.6,0-12-5.4-12-12s5.4-12,12-12h30c6.6,0,12-5.4,12-12s-5.4-12-12-12H470c-6.6,0-12,5.4-12,12
		s5.4,12,12,12h78l0,0c6.4,0.3,11.5,5.5,11.5,12s-5.1,11.7-11.5,12l0,0H388c-6.6,0-12,5.4-12,12s5.4,12,12,12h257
		c6.6,0,12-5.4,12-12S651.6,48,645,48z"/>
	<path class="st0" d="M323,48h-9c-6.6,0-12-5.4-12-12s5.4-12,12-12l0,0h84c6.6,0,12-5.4,12-12s-5.4-12-12-12H242
		c-6.6,0-12,5.4-12,12s5.4,12,12,12h24l0,0c6.4,0.3,11.5,5.5,11.5,12s-5.1,11.7-11.5,12l0,0H66c-6.6,0-12,5.4-12,12s5.4,12,12,12
		h257c6.6,0,12-5.4,12-12S329.6,48,323,48z"/>
	<path class="st0" d="M461,96h-73l0,0c-6.6,0-12,5.4-12,12s5.4,12,12,12h73c6.6,0,12-5.4,12-12S467.6,96,461,96z"/>
	<path class="st0" d="M846,0H690c-6.6,0-12,5.4-12,12s5.4,12,12,12h156c6.6,0,12-5.4,12-12S852.6,0,846,0z"/>
	<path class="st0" d="M748,96h-73c-6.6,0-12,5.4-12,12s5.4,12,12,12h73c6.6,0,12-5.4,12-12S754.6,96,748,96z"/>
</g>
</svg>
