<?xml version="1.0" encoding="utf-8"?>
<!-- Generator: Adobe Illustrator 28.4.1, SVG Export Plug-In . SVG Version: 6.00 Build 0)  -->
<svg version="1.1" id="Capa_1" xmlns="http://www.w3.org/2000/svg" xmlns:xlink="http://www.w3.org/1999/xlink" x="0px" y="0px"
	 viewBox="0 0 881 120" style="enable-background:new 0 0 881 120;" xml:space="preserve">
<style type="text/css">
	.st0{fill:#50DECD;}
</style>
<g>
	<path class="st0" d="M418,24h73c6.6,0,12-5.4,12-12c0-6.6-5.4-12-12-12h-73c-6.6,0-12,5.4-12,12C406,18.6,411.4,24,418,24z"/>
	<path class="st0" d="M577,24h166c6.6,0,12-5.4,12-12c0-6.6-5.4-12-12-12H577c-6.6,0-12,5.4-12,12C565,18.6,570.4,24,577,24z"/>
	<path class="st0" d="M851,96H695c-6.6,0-12,5.4-12,12c0,6.6,5.4,12,12,12h156c6.6,0,12-5.4,12-12C863,101.4,857.6,96,851,96z"/>
	<path class="st0" d="M189,96H33c-6.6,0-12,5.4-12,12c0,6.6,5.4,12,12,12h156c6.6,0,12-5.4,12-12C201,101.4,195.6,96,189,96z"/>
	<path class="st0" d="M637,96h-24v0c-6.4-0.3-11.5-5.5-11.5-12s5.1-11.7,11.5-12v0h200c6.6,0,12-5.4,12-12c0-6.6-5.4-12-12-12H556
		c-6.6,0-12,5.4-12,12c0,6.6,5.4,12,12,12h9c6.6,0,12,5.4,12,12c0,6.6-5.4,12-12,12h-84c-6.6,0-12,5.4-12,12c0,6.6,5.4,12,12,12h156
		c6.6,0,12-5.4,12-12C649,101.4,643.6,96,637,96z"/>
	<path class="st0" d="M204,0h-73c-6.6,0-12,5.4-12,12c0,6.6,5.4,12,12,12h73c6.6,0,12-5.4,12-12C216,5.4,210.6,0,204,0z"/>
	<path class="st0" d="M409,96h-78v0c-6.4-0.3-11.5-5.5-11.5-12s5.1-11.7,11.5-12v0h160c6.6,0,12-5.4,12-12c0-6.6-5.4-12-12-12H234
		c-6.6,0-12,5.4-12,12c0,6.6,5.4,12,12,12h49c6.6,0,12,5.4,12,12c0,6.6-5.4,12-12,12h-30c-6.6,0-12,5.4-12,12c0,6.6,5.4,12,12,12
		h156c6.6,0,12-5.4,12-12C421,101.4,415.6,96,409,96z"/>
</g>
</svg>
