<?xml version="1.0" encoding="utf-8"?>
<!-- Generator: Adobe Illustrator 28.4.1, SVG Export Plug-In . SVG Version: 6.00 Build 0)  -->
<svg version="1.1" id="Capa_1" xmlns="http://www.w3.org/2000/svg" xmlns:xlink="http://www.w3.org/1999/xlink" x="0px" y="0px"
	 viewBox="0 0 985.4 408" style="enable-background:new 0 0 985.4 408;" xml:space="preserve">
<style type="text/css">
	.st0{fill:#49CBC2;}
	.st1{fill:#77FFF5;}
</style>
<g>
	<g>
		<path class="st0" d="M592.2,48h-160v0c-6.4-0.3-11.5-5.5-11.5-12c0-6.5,5.1-11.7,11.5-12v0h78c6.6,0,12-5.4,12-12
			c0-6.6-5.4-12-12-12h-156c-6.6,0-12,5.4-12,12c0,6.6,5.4,12,12,12h30c6.6,0,12,5.4,12,12c0,6.6-5.4,12-12,12h-49
			c-6.6,0-12,5.4-12,12c0,6.6,5.4,12,12,12h257c6.6,0,12-5.4,12-12C604.2,53.4,598.8,48,592.2,48z"/>
		<path class="st0" d="M592.2,96h-73c-6.6,0-12,5.4-12,12c0,6.6,5.4,12,12,12h73c6.6,0,12-5.4,12-12C604.2,101.4,598.8,96,592.2,96z
			"/>
		<path class="st0" d="M305.2,96h-73c-6.6,0-12,5.4-12,12c0,6.6,5.4,12,12,12h73c6.6,0,12-5.4,12-12C317.2,101.4,311.8,96,305.2,96z
			"/>
		<path class="st0" d="M302.2,12c0-6.6-5.4-12-12-12h-156c-6.6,0-12,5.4-12,12c0,6.6,5.4,12,12,12h156C296.8,24,302.2,18.6,302.2,12
			z"/>
		<path class="st0" d="M952.2,0h-156c-6.6,0-12,5.4-12,12c0,6.6,5.4,12,12,12h156c6.6,0,12-5.4,12-12C964.2,5.4,958.8,0,952.2,0z"/>
		<path class="st0" d="M914.2,48h-200v0c-6.4-0.3-11.5-5.5-11.5-12c0-6.5,5.1-11.7,11.5-12v0h24c6.6,0,12-5.4,12-12
			c0-6.6-5.4-12-12-12h-156c-6.6,0-12,5.4-12,12c0,6.6,5.4,12,12,12h84c6.6,0,12,5.4,12,12c0,6.6-5.4,12-12,12h-9
			c-6.6,0-12,5.4-12,12c0,6.6,5.4,12,12,12h257c6.6,0,12-5.4,12-12C926.2,53.4,920.8,48,914.2,48z"/>
		<path class="st0" d="M844.2,96h-166c-6.6,0-12,5.4-12,12c0,6.6,5.4,12,12,12h166c6.6,0,12-5.4,12-12
			C856.2,101.4,850.8,96,844.2,96z"/>
	</g>
	<g>
		<path class="st1" d="M489.2,384h-73c-6.6,0-12,5.4-12,12c0,6.6,5.4,12,12,12h73c6.6,0,12-5.4,12-12
			C501.2,389.4,495.8,384,489.2,384z"/>
		<path class="st1" d="M202.2,384h-73c-6.6,0-12,5.4-12,12c0,6.6,5.4,12,12,12h73c6.6,0,12-5.4,12-12
			C214.2,389.4,208.8,384,202.2,384z"/>
		<path class="st1" d="M199.2,300c0-6.6-5.4-12-12-12h-156c-6.6,0-12,5.4-12,12c0,6.6,5.4,12,12,12h156
			C193.8,312,199.2,306.6,199.2,300z"/>
		<path class="st1" d="M849.2,288h-156c-6.6,0-12,5.4-12,12c0,6.6,5.4,12,12,12h156c6.6,0,12-5.4,12-12
			C861.2,293.4,855.8,288,849.2,288z"/>
		<path class="st1" d="M489.2,336h-160v0c-6.4-0.3-11.5-5.5-11.5-12c0-6.5,5.1-11.7,11.5-12v0h78c6.6,0,12-5.4,12-12
			c0-6.6-5.4-12-12-12h-156c-6.6,0-12,5.4-12,12c0,6.6,5.4,12,12,12h30c6.6,0,12,5.4,12,12c0,6.6-5.4,12-12,12h-49
			c-6.6,0-12,5.4-12,12c0,6.6,5.4,12,12,12h257c6.6,0,12-5.4,12-12C501.2,341.4,495.8,336,489.2,336z"/>
		<path class="st1" d="M811.2,336h-200v0c-6.4-0.3-11.5-5.5-11.5-12c0-6.5,5.1-11.7,11.5-12v0h24c6.6,0,12-5.4,12-12
			c0-6.6-5.4-12-12-12h-156c-6.6,0-12,5.4-12,12c0,6.6,5.4,12,12,12h84c6.6,0,12,5.4,12,12c0,6.6-5.4,12-12,12h-9
			c-6.6,0-12,5.4-12,12c0,6.6,5.4,12,12,12h257c6.6,0,12-5.4,12-12C823.2,341.4,817.8,336,811.2,336z"/>
		<path class="st1" d="M741.2,384h-166c-6.6,0-12,5.4-12,12c0,6.6,5.4,12,12,12h166c6.6,0,12-5.4,12-12
			C753.2,389.4,747.8,384,741.2,384z"/>
	</g>
</g>
</svg>
