<?xml version="1.0" encoding="utf-8"?>
<!-- Generator: Adobe Illustrator 28.4.1, SVG Export Plug-In . SVG Version: 6.00 Build 0)  -->
<svg version="1.1" id="Capa_1" xmlns="http://www.w3.org/2000/svg" xmlns:xlink="http://www.w3.org/1999/xlink" x="0px" y="0px"
	 viewBox="0 0 441 434" style="enable-background:new 0 0 441 434;" xml:space="preserve">
<style type="text/css">
	.st0{fill:#E29F58;}
</style>
<g>
	<path class="st0" d="M61,96H41c-6.6,0-12,5.4-12,12s5.4,12,12,12h20c6.6,0,12-5.4,12-12S67.6,96,61,96z"/>
	<path class="st0" d="M354,72h20c6.6,0,12-5.4,12-12s-5.4-12-12-12h-20c-6.6,0-12,5.4-12,12S347.4,72,354,72z"/>
	<path class="st0" d="M197,108c0-6.6-5.4-12-12-12h-3l0,0c-6.4-0.3-11.5-5.5-11.5-12s5.1-11.7,11.5-12l0,0h68c6.6,0,12-5.4,12-12
		s-5.4-12-12-12H90v0c-6.4-0.3-11.5-5.5-11.5-12S83.6,24.3,90,24v0h78c6.6,0,12-5.4,12-12s-5.4-12-12-12H12C5.4,0,0,5.4,0,12
		s5.4,12,12,12h30c6.6,0,12,5.4,12,12s-5.4,12-12,12H28c-6.6,0-12,5.4-12,12s5.4,12,12,12h85c6.6,0,12,5.4,12,12s-5.4,12-12,12h-4
		c-6.6,0-12,5.4-12,12s5.4,12,12,12h76C191.6,120,197,114.6,197,108z"/>
	<path class="st0" d="M429,96H328c-6.6,0-12,5.4-12,12s5.4,12,12,12h101c6.6,0,12-5.4,12-12S435.6,96,429,96z"/>
	<path class="st0" d="M231,144h-62c-6.6,0-12,5.4-12,12s5.4,12,12,12h62c6.6,0,12-5.4,12-12S237.6,144,231,144z"/>
	<path class="st0" d="M253,96h-20c-6.6,0-12,5.4-12,12s5.4,12,12,12h20c6.6,0,12-5.4,12-12S259.6,96,253,96z"/>
</g>
<g>
	<path class="st0" d="M363.5,295.9h20c6.6,0,12-5.4,12-12s-5.4-12-12-12h-20c-6.6,0-12,5.4-12,12S356.9,295.9,363.5,295.9z"/>
	<path class="st0" d="M119.5,223.9h-20c-6.6,0-12,5.4-12,12s5.4,12,12,12h20c6.6,0,12-5.4,12-12S126.1,223.9,119.5,223.9z"/>
	<path class="st0" d="M227.5,283.9c0,6.6,5.4,12,12,12h3l0,0c6.4,0.3,11.5,5.5,11.5,12s-5.1,11.7-11.5,12l0,0h-68
		c-6.6,0-12,5.4-12,12s5.4,12,12,12h160v0c6.4,0.3,11.5,5.5,11.5,12s-5.1,11.7-11.5,12v0h-78c-6.6,0-12,5.4-12,12s5.4,12,12,12h156
		c6.6,0,12-5.4,12-12s-5.4-12-12-12h-30c-6.6,0-12-5.4-12-12s5.4-12,12-12h14c6.6,0,12-5.4,12-12s-5.4-12-12-12h-85
		c-6.6,0-12-5.4-12-12s5.4-12,12-12h4c6.6,0,12-5.4,12-12s-5.4-12-12-12h-76C232.9,271.9,227.5,277.3,227.5,283.9z"/>
	<path class="st0" d="M270.5,202.9h101c6.6,0,12-5.4,12-12s-5.4-12-12-12h-101c-6.6,0-12,5.4-12,12S263.9,202.9,270.5,202.9z"/>
	<path class="st0" d="M193.5,247.9h62c6.6,0,12-5.4,12-12s-5.4-12-12-12h-62c-6.6,0-12,5.4-12,12S186.9,247.9,193.5,247.9z"/>
	<path class="st0" d="M171.5,295.9h20c6.6,0,12-5.4,12-12s-5.4-12-12-12h-20c-6.6,0-12,5.4-12,12S164.9,295.9,171.5,295.9z"/>
</g>
</svg>
