<?xml version="1.0" encoding="utf-8"?>
<!-- Generator: Adobe Illustrator 28.4.1, SVG Export Plug-In . SVG Version: 6.00 Build 0)  -->
<svg version="1.1" id="Capa_1" xmlns="http://www.w3.org/2000/svg" xmlns:xlink="http://www.w3.org/1999/xlink" x="0px" y="0px"
	 viewBox="0 0 520.5 360" style="enable-background:new 0 0 520.5 360;" xml:space="preserve">
<style type="text/css">
	.st0{fill:#FFE6AE;}
</style>
<g>
	<path class="st0" d="M375.5,288h-231c-6.6,0-12,5.4-12,12s5.4,12,12,12h41c6.6,0,12,5.4,12,12s-5.4,12-12,12h-4
		c-6.6,0-12,5.4-12,12s5.4,12,12,12h76c6.6,0,12-5.4,12-12s-5.4-12-12-12h-3l0,0c-6.4-0.3-11.5-5.5-11.5-12c0-6.5,5.1-11.7,11.5-12
		l0,0h121c6.6,0,12-5.4,12-12S382.1,288,375.5,288z"/>
	<path class="st0" d="M416.5,192h-80v0c-6.4-0.3-11.5-5.5-11.5-12s5.1-11.7,11.5-12v0h19c6.6,0,12-5.4,12-12s-5.4-12-12-12h-231
		c-6.6,0-12,5.4-12,12s5.4,12,12,12h70c6.6,0,12,5.4,12,12s-5.4,12-12,12h-9c-6.6,0-12,5.4-12,12s5.4,12,12,12h142
		c6.6,0,12,5.4,12,12s-5.4,12-12,12h-6c-6.6,0-12,5.4-12,12s5.4,12,12,12h76c6.6,0,12-5.4,12-12s-5.4-12-12-12h-1l0,0
		c-6.4-0.3-11.5-5.5-11.5-12s5.1-11.7,11.5-12l0,0h20c6.6,0,12-5.4,12-12S423.1,192,416.5,192z"/>
	<path class="st0" d="M194.5,252c0-6.6-5.4-12-12-12h-76c-6.6,0-12,5.4-12,12s5.4,12,12,12h76C189.1,264,194.5,258.6,194.5,252z"/>
	<path class="st0" d="M508.5,192h-41c-6.6,0-12,5.4-12,12s5.4,12,12,12h41c6.6,0,12-5.4,12-12S515.1,192,508.5,192z"/>
	<path class="st0" d="M56,144H12c-6.6,0-12,5.4-12,12s5.4,12,12,12h44c6.6,0,12-5.4,12-12S62.6,144,56,144z"/>
	<path class="st0" d="M281.5,96c-6.6,0-12,5.4-12,12s5.4,12,12,12h62c6.6,0,12-5.4,12-12s-5.4-12-12-12H281.5z"/>
	<path class="st0" d="M184.5,120h20c6.6,0,12-5.4,12-12s-5.4-12-12-12h-20c-6.6,0-12,5.4-12,12S177.9,120,184.5,120z"/>
	<path class="st0" d="M105.5,24h120c6.6,0,12,5.4,12,12s-5.4,12-12,12h-4c-6.6,0-12,5.4-12,12s5.4,12,12,12h76c6.6,0,12-5.4,12-12
		s-5.4-12-12-12h-3v0c-6.4-0.3-11.5-5.5-11.5-12s5.1-11.7,11.5-12l0,0h68c6.6,0,12-5.4,12-12s-5.4-12-12-12h-257
		c-6.6,0-12,5.4-12,12S98.9,24,105.5,24z"/>
	<path class="st0" d="M377.5,60c0-6.6-5.4-12-12-12h-20c-6.6,0-12,5.4-12,12s5.4,12,12,12h20C372.1,72,377.5,66.6,377.5,60z"/>
	<path class="st0" d="M185.5,60c0-6.6-5.4-12-12-12h-20c-6.6,0-12,5.4-12,12s5.4,12,12,12h20C180.1,72,185.5,66.6,185.5,60z"/>
</g>
</svg>
